<mxfile host="app.diagrams.net" modified="2024-07-30T05:51:57.130Z" agent="Mozilla/5.0 (Macintosh; Intel Mac OS X 10_15_7) AppleWebKit/537.36 (KHTML, like Gecko) Chrome/126.0.0.0 Safari/537.36" etag="Mzbbdj1ohlen8j3fAmAO" version="24.2.3" type="github">
  <diagram name="Page-1" id="74e2e168-ea6b-b213-b513-2b3c1d86103e">
    <mxGraphModel dx="954" dy="656" grid="0" gridSize="10" guides="1" tooltips="1" connect="1" arrows="1" fold="1" page="1" pageScale="1" pageWidth="1100" pageHeight="850" background="none" math="0" shadow="0">
      <root>
        <mxCell id="0" />
        <mxCell id="1" parent="0" />
        <mxCell id="77e6c97f196da883-1" value="合约狂欢派对赠金流程" style="swimlane;html=1;childLayout=stackLayout;startSize=20;rounded=0;shadow=0;labelBackgroundColor=none;strokeWidth=1;fontFamily=Verdana;fontSize=8;align=center;" parent="1" vertex="1">
          <mxGeometry x="70" y="40" width="960" height="750" as="geometry" />
        </mxCell>
        <mxCell id="77e6c97f196da883-2" value="合约" style="swimlane;html=1;startSize=20;" parent="77e6c97f196da883-1" vertex="1">
          <mxGeometry y="20" width="285" height="730" as="geometry" />
        </mxCell>
        <mxCell id="dWCozglRNfpG29KUtYCo-2" value="划转" style="rounded=0;whiteSpace=wrap;html=1;" vertex="1" parent="77e6c97f196da883-2">
          <mxGeometry x="83" y="118" width="120" height="60" as="geometry" />
        </mxCell>
        <mxCell id="dWCozglRNfpG29KUtYCo-8" value="发放赠金" style="rounded=1;whiteSpace=wrap;html=1;" vertex="1" parent="77e6c97f196da883-2">
          <mxGeometry x="83" y="263" width="120" height="60" as="geometry" />
        </mxCell>
        <mxCell id="77e6c97f196da883-3" value="活动" style="swimlane;html=1;startSize=20;" parent="77e6c97f196da883-1" vertex="1">
          <mxGeometry x="285" y="20" width="246" height="730" as="geometry" />
        </mxCell>
        <mxCell id="dWCozglRNfpG29KUtYCo-4" value="赠金冻结" style="rounded=0;whiteSpace=wrap;html=1;" vertex="1" parent="77e6c97f196da883-3">
          <mxGeometry x="63" y="118" width="120" height="60" as="geometry" />
        </mxCell>
        <mxCell id="dWCozglRNfpG29KUtYCo-6" value="计算赠金金额" style="rounded=0;whiteSpace=wrap;html=1;" vertex="1" parent="77e6c97f196da883-3">
          <mxGeometry x="69" y="263" width="120" height="60" as="geometry" />
        </mxCell>
        <mxCell id="dWCozglRNfpG29KUtYCo-7" style="edgeStyle=none;curved=1;rounded=0;orthogonalLoop=1;jettySize=auto;html=1;entryX=0.45;entryY=0.067;entryDx=0;entryDy=0;entryPerimeter=0;fontSize=12;startSize=8;endSize=8;" edge="1" parent="77e6c97f196da883-3" source="dWCozglRNfpG29KUtYCo-4" target="dWCozglRNfpG29KUtYCo-6">
          <mxGeometry relative="1" as="geometry" />
        </mxCell>
        <mxCell id="dWCozglRNfpG29KUtYCo-10" value="赠金解冻" style="rounded=1;whiteSpace=wrap;html=1;" vertex="1" parent="77e6c97f196da883-3">
          <mxGeometry x="71" y="404" width="120" height="60" as="geometry" />
        </mxCell>
        <mxCell id="77e6c97f196da883-4" value="Lane 3" style="swimlane;html=1;startSize=20;" parent="77e6c97f196da883-1" vertex="1">
          <mxGeometry x="531" y="20" width="232" height="730" as="geometry" />
        </mxCell>
        <mxCell id="77e6c97f196da883-5" value="Lane 4" style="swimlane;html=1;startSize=20;" parent="77e6c97f196da883-1" vertex="1">
          <mxGeometry x="763" y="20" width="196" height="730" as="geometry" />
        </mxCell>
        <mxCell id="dWCozglRNfpG29KUtYCo-5" style="edgeStyle=none;curved=1;rounded=0;orthogonalLoop=1;jettySize=auto;html=1;entryX=0;entryY=0.5;entryDx=0;entryDy=0;fontSize=12;startSize=8;endSize=8;" edge="1" parent="77e6c97f196da883-1" source="dWCozglRNfpG29KUtYCo-2" target="dWCozglRNfpG29KUtYCo-4">
          <mxGeometry relative="1" as="geometry" />
        </mxCell>
        <mxCell id="dWCozglRNfpG29KUtYCo-9" style="edgeStyle=none;curved=1;rounded=0;orthogonalLoop=1;jettySize=auto;html=1;entryX=1;entryY=0.5;entryDx=0;entryDy=0;fontSize=12;startSize=8;endSize=8;" edge="1" parent="77e6c97f196da883-1" source="dWCozglRNfpG29KUtYCo-6" target="dWCozglRNfpG29KUtYCo-8">
          <mxGeometry relative="1" as="geometry" />
        </mxCell>
        <mxCell id="dWCozglRNfpG29KUtYCo-14" style="edgeStyle=none;curved=0;rounded=0;orthogonalLoop=1;jettySize=auto;html=1;entryX=0;entryY=0.5;entryDx=0;entryDy=0;fontSize=12;startSize=8;endSize=8;" edge="1" parent="77e6c97f196da883-1" source="dWCozglRNfpG29KUtYCo-8" target="dWCozglRNfpG29KUtYCo-10">
          <mxGeometry relative="1" as="geometry">
            <Array as="points">
              <mxPoint x="145" y="454" />
            </Array>
          </mxGeometry>
        </mxCell>
      </root>
    </mxGraphModel>
  </diagram>
</mxfile>
